<?xml version="1.0" encoding="utf-8"?>
<!-- Generator: Adobe Illustrator 28.3.0, SVG Export Plug-In . SVG Version: 6.00 Build 0)  -->
<svg version="1.1" id="Camada_1" xmlns="http://www.w3.org/2000/svg" xmlns:xlink="http://www.w3.org/1999/xlink" x="0px" y="0px"
	 viewBox="0 0 512 512" style="enable-background:new 0 0 512 512;" xml:space="preserve">
<style type="text/css">
	.st0{fill:#155DFC;}
</style>
<g transform="translate(0.000000,512.000000) scale(0.100000,-0.100000)">
	<path class="st0" d="M998.1,4969.9c-168.4-41.3-328.3-168.4-407.7-325.1c-10.6-20.1-103.8-297.6-205.4-614.2
		c-201.2-622.6-202.3-630-170.5-753.9c52.9-205.4,231.9-378,434.2-420.4c36-7.4,222.4-10.6,543.2-8.5
		c624.8,4.2,576-23.3,584.5,320.8c6.4,237.2,11.6,260.5,79.4,301.8c56.1,34.9,108,38.1,164.1,8.5c81.5-42.4,88.9-65.7,95.3-310.3
		c5.3-229.8,11.6-254.1,66.7-295.4c29.6-21.2,41.3-22.2,434.2-22.2c449,0,447.9,0,488.2,68.8c20.1,32.8,23.3,60.4,27.5,256.3
		c6.4,248.8,8.5,257.3,96.4,302.8c81.5,42.4,179,8.5,221.3-78.4c19.1-38.1,21.2-64.6,21.2-237.2c0-173.7,2.1-199.1,21.2-238.3
		c37.1-75.2,23.3-74.1,565.5-77.3c327.2-2.1,505.1,1.1,543.2,8.5c155.7,32.8,317.7,161,387.6,309.2c43.4,88.9,65.7,187.4,58.2,259.4
		c-5.3,54-357.9,1158.4-389.7,1220.9c-81.5,161-249.9,290.1-421.4,327.2C4151.5,4991.1,1071.2,4987.9,998.1,4969.9z"/>
	<path class="st0" d="M536.4,2588.4c-25.4-13.8-60.4-45.5-78.4-69.9l-31.8-45.5l-3.2-879.9c-2.1-615.2,1.1-902.2,9.5-952
		c37.1-225.5,229.8-432,459.6-490.3c55.1-13.8,272.1-15.9,1731.3-15.9c1837.2,0,1719.7-4.2,1863.7,65.7
		c104.8,50.8,221.3,171.5,274.3,284.8c23.3,48.7,47.7,119.7,54,157.8c7.4,47.7,10.6,338.8,8.5,949.8l-3.2,879.9l-31.8,45.5
		c-16.9,24.4-52.9,56.1-78.4,69.9l-46.6,24.4H2623.5H583L536.4,2588.4z M2468.9,2227.3c85.8-36,131.3-144,96.4-234
		c-56.1-148.2-252-159.9-330.4-21.2C2150.2,2121.5,2309,2294.1,2468.9,2227.3z M3072.5,2206.2c111.2-84.7,96.4-252-27.5-312.4
		c-57.2-27.5-96.4-27.5-151.4-2.1c-105.9,48.7-143,163.1-84.7,260.5C2861.8,2243.2,2989.9,2269.7,3072.5,2206.2z M2023.1,1846.1
		c82.6-33.9,119.7-122.8,85.8-205.4c-29.6-72-77.3-100.6-155.7-95.3c-54,4.2-66.7,9.5-99.5,43.4c-33.9,33.9-39.2,45.5-42.4,99.5
		c-5.3,74.1,18,118.6,78.4,150.4C1937.4,1864.1,1976.5,1866.3,2023.1,1846.1z M3470.7,1837.7c145.1-75.2,91.1-294.4-72-294.4
		c-136.6,0-208.6,151.4-121.8,255.2C3330.9,1862,3395.5,1875.8,3470.7,1837.7z M2823.7,1696.8c140.8-33.9,275.3-123.9,365.3-246.7
		c49.8-68.8,197-422.5,207.5-501.9c29.6-206.5-104.8-409.8-309.2-469.1c-50.8-14.8-113.3-16.9-434.2-13.8l-373.8,3.2l-70.9,34.9
		c-172.6,84.7-273.2,273.2-242.5,452.2c9.5,54,125,352.6,171.5,441.6c48.7,94.2,172.6,208.6,279.6,258.4
		C2539.9,1712.7,2691.3,1727.5,2823.7,1696.8z"/>
	<path class="st0" d="M2587.5,1356.9c-92.1-28.6-138.7-88.9-216-279.6c-36-90-65.7-176.8-65.7-191.7c0-15.9,9.5-40.2,22.2-56.1
		l21.2-27.5h333.6h333.6l25.4,26.5c14.8,13.8,26.5,37.1,26.5,51.9s-29.6,99.5-65.7,187.4c-57.2,138.7-74.1,169.4-120.7,217.1
		C2801.4,1367.5,2703,1391.9,2587.5,1356.9z"/>
</g>
</svg>
